<svg xmlns="http://www.w3.org/2000/svg" xmlns:xlink="http://www.w3.org/1999/xlink" version="1.1" x="0px" y="0px" viewBox="0 0 100 125" enable-background="new 0 0 100 100" xml:space="preserve"><path fill="#000000" d="M50,15.747c-23.284,0-48.031,6.185-48.031,17.646v27.795C1.968,72.65,26.715,78.835,50,78.835  c23.285,0,48.032-6.185,48.032-17.646V33.394C98.031,21.932,73.284,15.747,50,15.747z M50,20.747  c26.661,0,43.032,7.366,43.032,12.646S76.66,46.04,50,46.04S6.968,38.674,6.968,33.394S23.339,20.747,50,20.747z M50,73.835  c-26.661,0-43.031-7.366-43.031-12.646V41.572C15.367,47.766,33.065,51.04,50,51.04c16.935,0,34.633-3.274,43.032-9.468v19.617  C93.031,66.469,76.66,73.835,50,73.835z"/><path fill="#000000" d="M68.332,39.106c0.184,1.242,1.251,2.135,2.47,2.135c0.121,0,0.245-0.009,0.369-0.027  c9.633-1.425,14.517-4.059,14.517-7.828c0-3.759-4.604-6.297-14.077-7.76c-1.365-0.207-2.642,0.725-2.853,2.089  c-0.211,1.364,0.725,2.641,2.089,2.852c5.789,0.894,8.522,2.131,9.509,2.819c-1.012,0.707-3.853,1.983-9.917,2.88  C69.073,36.469,68.13,37.74,68.332,39.106z"/><path fill="#000000" d="M13.287,48.082c-1.381,0-2.5,1.119-2.5,2.5v9.231c0,1.381,1.119,2.5,2.5,2.5s2.5-1.119,2.5-2.5v-9.231  C15.787,49.201,14.667,48.082,13.287,48.082z"/><path fill="#000000" d="M20.453,52.698c-1.381,0-2.5,1.119-2.5,2.5v7.365c0,1.381,1.119,2.5,2.5,2.5s2.5-1.119,2.5-2.5v-7.365  C22.953,53.817,21.833,52.698,20.453,52.698z"/><text x="0" y="115" fill="#000000" font-size="5px" font-weight="bold" font-family="'Helvetica Neue', Helvetica, Arial-Unicode, Arial, Sans-serif">Created by Andrey Vasiliev</text><text x="0" y="120" fill="#000000" font-size="5px" font-weight="bold" font-family="'Helvetica Neue', Helvetica, Arial-Unicode, Arial, Sans-serif">from the Noun Project</text></svg>